<svg width="38" height="37" viewBox="0 0 38 37" fill="none" xmlns="http://www.w3.org/2000/svg">
<g id="&#240;&#159;&#166;&#134; icon &#34;menu&#34;">
<g id="Group">
<path id="Vector" opacity="0.6" d="M26.9116 0H11.0188C4.11545 0 0 4.00027 0 10.7104V26.14C0 32.8686 4.11545 36.8688 11.0188 36.8688H26.8927C33.796 36.8688 37.9115 32.8686 37.9115 26.1584V10.7104C37.9304 4.00027 33.815 0 26.9116 0Z" fill="#FFFAF1"/>
<path id="Vector_2" d="M28.4479 11.5215H9.48263C8.70506 11.5215 8.06024 10.8947 8.06024 10.1389C8.06024 9.38312 8.70506 8.75635 9.48263 8.75635H28.4479C29.2254 8.75635 29.8702 9.38312 29.8702 10.1389C29.8702 10.8947 29.2254 11.5215 28.4479 11.5215Z" fill="#665A48"/>
<path id="Vector_3" d="M28.4479 19.817H9.48263C8.70506 19.817 8.06024 19.1902 8.06024 18.4344C8.06024 17.6786 8.70506 17.0518 9.48263 17.0518H28.4479C29.2254 17.0518 29.8702 17.6786 29.8702 18.4344C29.8702 19.1902 29.2254 19.817 28.4479 19.817Z" fill="#665A48"/>
<path id="Vector_4" d="M28.4479 28.1125H9.48263C8.70506 28.1125 8.06024 27.4857 8.06024 26.7299C8.06024 25.9741 8.70506 25.3473 9.48263 25.3473H28.4479C29.2254 25.3473 29.8702 25.9741 29.8702 26.7299C29.8702 27.4857 29.2254 28.1125 28.4479 28.1125Z" fill="#665A48"/>
</g>
</g>
</svg>
